<svg xmlns="http://www.w3.org/2000/svg" viewBox="0 0 100 100" width="100" height="100">
  <defs>
    <!-- 渐变定义 -->
    <linearGradient id="brainGradient" x1="0%" y1="0%" x2="100%" y2="100%">
      <stop offset="0%" style="stop-color:#667eea;stop-opacity:1" />
      <stop offset="50%" style="stop-color:#764ba2;stop-opacity:1" />
      <stop offset="100%" style="stop-color:#f093fb;stop-opacity:1" />
    </linearGradient>

    <linearGradient id="brushGradient" x1="0%" y1="0%" x2="100%" y2="100%">
      <stop offset="0%" style="stop-color:#ffecd2;stop-opacity:1" />
      <stop offset="100%" style="stop-color:#fcb69f;stop-opacity:1" />
    </linearGradient>

    <radialGradient id="sparkleGradient" cx="50%" cy="50%" r="50%">
      <stop offset="0%" style="stop-color:#ffffff;stop-opacity:0.8" />
      <stop offset="100%" style="stop-color:#ffffff;stop-opacity:0" />
    </radialGradient>
  </defs>

  <!-- 背景圆形 -->
  <circle cx="50" cy="50" r="45" fill="url(#brainGradient)" opacity="0.1"/>

  <!-- AI大脑 -->
  <path d="M25 40 Q30 30, 40 35 Q50 25, 60 35 Q70 30, 75 40 Q75 50, 70 60 Q60 70, 50 65 Q40 70, 30 60 Q25 50, 25 40 Z"
        fill="url(#brainGradient)" opacity="0.8"/>

  <!-- 大脑内部神经网络线条 -->
  <g stroke="white" stroke-width="1.5" fill="none" opacity="0.6">
    <line x1="35" y1="42" x2="45" y2="52"/>
    <line x1="45" y1="42" x2="55" y2="52"/>
    <line x1="55" y1="42" x2="65" y2="52"/>
    <line x1="40" y1="48" x2="60" y2="48"/>
  </g>

  <!-- 神经网络节点 -->
  <g fill="white" opacity="0.8">
    <circle cx="35" cy="42" r="2"/>
    <circle cx="45" cy="42" r="2"/>
    <circle cx="55" cy="42" r="2"/>
    <circle cx="65" cy="42" r="2"/>
    <circle cx="40" cy="48" r="2"/>
    <circle cx="60" cy="48" r="2"/>
    <circle cx="45" cy="52" r="2"/>
    <circle cx="55" cy="52" r="2"/>
  </g>

  <!-- 画笔 -->
  <g transform="translate(60, 60) rotate(45)">
    <!-- 画笔杆 -->
    <rect x="-2" y="-15" width="4" height="20" fill="url(#brushGradient)"/>
    <!-- 画笔头 -->
    <ellipse cx="0" cy="7" rx="3" ry="8" fill="#8B4513"/>
    <!-- 画笔尖 -->
    <ellipse cx="0" cy="13" rx="1" ry="3" fill="#2C1810"/>
  </g>

  <!-- 创意火花 -->
  <g fill="url(#sparkleGradient)">
    <polygon points="20,25 22,20 24,25 29,23 24,27 22,32 20,27 15,23" opacity="0.7"/>
    <polygon points="75,70 76,67 77,70 80,69 77,72 76,75 75,72 72,69" opacity="0.6"/>
    <polygon points="80,20 81,18 82,20 84,19 82,22 81,24 80,22 78,19" opacity="0.5"/>
  </g>

  <!-- 艺术色彩点 -->
  <g opacity="0.6">
    <circle cx="30" cy="70" r="3" fill="#ff6b6b"/>
    <circle cx="70" cy="30" r="2.5" fill="#4ecdc4"/>
    <circle cx="20" cy="50" r="2" fill="#ffe66d"/>
    <circle cx="80" cy="45" r="2" fill="#a8e6cf"/>
  </g>
</svg>